<mxfile host="app.diagrams.net" agent="Mozilla/5.0 (Macintosh; Intel Mac OS X 10_15_7) AppleWebKit/605.1.15 (KHTML, like Gecko) Version/18.4 Safari/605.1.15" version="27.0.2">
  <diagram id="6a731a19-8d31-9384-78a2-239565b7b9f0" name="Page-1">
    <mxGraphModel dx="976" dy="614" grid="1" gridSize="10" guides="1" tooltips="1" connect="1" arrows="1" fold="1" page="1" pageScale="1" pageWidth="1169" pageHeight="827" background="none" math="0" shadow="0">
      <root>
        <mxCell id="0" />
        <mxCell id="1" parent="0" />
        <mxCell id="QMoyi2XgnDFTkMKc4ycw-55" value="Cashier" style="swimlane;whiteSpace=wrap;html=1;" parent="1" vertex="1">
          <mxGeometry x="50" y="70" width="320" height="710" as="geometry" />
        </mxCell>
        <mxCell id="v3eB7rThs6Ld6x55L0U5-2" value="Incoming order" style="strokeWidth=2;html=1;shape=mxgraph.flowchart.terminator;whiteSpace=wrap;" vertex="1" parent="QMoyi2XgnDFTkMKc4ycw-55">
          <mxGeometry x="30" y="40" width="100" height="60" as="geometry" />
        </mxCell>
        <mxCell id="v3eB7rThs6Ld6x55L0U5-7" value="Serve order" style="rounded=1;whiteSpace=wrap;html=1;absoluteArcSize=1;arcSize=14;strokeWidth=2;" vertex="1" parent="QMoyi2XgnDFTkMKc4ycw-55">
          <mxGeometry x="40" y="570" width="100" height="60" as="geometry" />
        </mxCell>
        <mxCell id="QMoyi2XgnDFTkMKc4ycw-56" value="Cash Register" style="swimlane;whiteSpace=wrap;html=1;" parent="1" vertex="1">
          <mxGeometry x="370" y="70" width="320" height="710" as="geometry" />
        </mxCell>
        <mxCell id="v3eB7rThs6Ld6x55L0U5-4" value="Take order" style="rounded=1;whiteSpace=wrap;html=1;absoluteArcSize=1;arcSize=14;strokeWidth=2;" vertex="1" parent="QMoyi2XgnDFTkMKc4ycw-56">
          <mxGeometry x="90" y="40" width="100" height="60" as="geometry" />
        </mxCell>
        <mxCell id="QMoyi2XgnDFTkMKc4ycw-57" value="Payment Provider" style="swimlane;whiteSpace=wrap;html=1;" parent="1" vertex="1">
          <mxGeometry x="690" y="70" width="320" height="710" as="geometry" />
        </mxCell>
        <mxCell id="v3eB7rThs6Ld6x55L0U5-5" value="Verify credit card" style="strokeWidth=2;html=1;shape=mxgraph.flowchart.decision;whiteSpace=wrap;" vertex="1" parent="QMoyi2XgnDFTkMKc4ycw-57">
          <mxGeometry x="80" y="180" width="120" height="90" as="geometry" />
        </mxCell>
        <mxCell id="v3eB7rThs6Ld6x55L0U5-10" value="Calculate order order" style="rounded=1;whiteSpace=wrap;html=1;absoluteArcSize=1;arcSize=14;strokeWidth=2;" vertex="1" parent="QMoyi2XgnDFTkMKc4ycw-57">
          <mxGeometry x="90" y="40" width="100" height="60" as="geometry" />
        </mxCell>
        <mxCell id="QMoyi2XgnDFTkMKc4ycw-58" value="Barista" style="swimlane;whiteSpace=wrap;html=1;" parent="1" vertex="1">
          <mxGeometry x="1010" y="70" width="320" height="710" as="geometry" />
        </mxCell>
        <mxCell id="v3eB7rThs6Ld6x55L0U5-6" value="Order prepared" style="shape=parallelogram;html=1;strokeWidth=2;perimeter=parallelogramPerimeter;whiteSpace=wrap;rounded=1;arcSize=12;size=0.23;" vertex="1" parent="QMoyi2XgnDFTkMKc4ycw-58">
          <mxGeometry x="70" y="540" width="120" height="60" as="geometry" />
        </mxCell>
      </root>
    </mxGraphModel>
  </diagram>
</mxfile>
